<svg xmlns="http://www.w3.org/2000/svg" viewBox="0 0 67.26 67.26"><defs><style>.cls-1{fill:#3c5062;fill-rule:evenodd;}</style></defs><g id="Layer_2" data-name="Layer 2"><g id="_18" data-name="18"><path class="cls-1" d="M9,66.56,7.2,56.93l12.39-5.36V67.18H9.08ZM6.86,55.05l-2-10.73,14.71-6.39V49.52ZM4.53,42.44,2.63,32.08l17-7.37v11.2ZM2.29,30.19.1,18.26,0,17.74l.46-.28,18-10.39,1.11-.64V22.68ZM48.9,23.25l18.36,4.34-.74,4.73L47,42ZM66.18,34.53,65,42.5,46,51.6l.75-7.46ZM64.63,44.69,63.35,53,45,61.21l.77-7.48ZM63,55.13,61.16,67.18H44.43l.39-3.85ZM21.36,0l-.05,25.5,26.23-2.7,1.13-11.31Zm-.05,27.33,0,6.61L46.67,31.6l.69-7Zm0,8.44v6.88L45.76,40.8l.72-7.35Zm0,8.73-.05,22.76H43.12l2.44-24.58Z"/></g></g></svg>