<svg xmlns="http://www.w3.org/2000/svg" viewBox="0 0 52.32 52.33"><defs><style>.cls-1{fill:#3c5062;fill-rule:evenodd;}</style></defs><g id="Layer_2" data-name="Layer 2"><g id="_18" data-name="18"><path class="cls-1" d="M1.93,0H50.4c1.05,0,1.92,1.15,1.92,2.52V4.2A2.3,2.3,0,0,1,50.4,6.73H40.67v3.2h6.51V47.72H8.36V9.93h5.58V6.73H5.16V49.82a2.29,2.29,0,0,1-1.94,2.51H1.93A2.28,2.28,0,0,1,0,49.82V2.52A2.3,2.3,0,0,1,1.93,0ZM44,14.16H11.59V43.51H44ZM37.44,6.73H17.15v3.2H37.44ZM41.17,41V16.68H14.37V41ZM19.88,28.34h.72a2.86,2.86,0,0,0,.87-.08.54.54,0,0,0,.28-.26,1.09,1.09,0,0,0,.1-.47,1.06,1.06,0,0,0-.13-.53.58.58,0,0,0-.36-.24,5.43,5.43,0,0,0-.72,0h-.76ZM18.9,32v-6.3H21a2.84,2.84,0,0,1,1.13.16,1.31,1.31,0,0,1,.57.61,2.4,2.4,0,0,1,.21,1,2.05,2.05,0,0,1-.32,1.18,1.51,1.51,0,0,1-.95.58,2.65,2.65,0,0,1,.52.54,9.36,9.36,0,0,1,.56,1L23.25,32H22.08l-.71-1.38a6.39,6.39,0,0,0-.5-.91.81.81,0,0,0-.3-.27,1.33,1.33,0,0,0-.49-.08h-.2V32Zm4.88,0v-6.3h3.57v1.06H24.76v1.41h2.41v1.06H24.76v1.7h2.68V32Zm4.5,0v-6.3h.95l2,4.22V25.68h.91V32h-1l-2-4.14V32Zm6,0V26.74H32.81V25.68h3.83v1.06H35.22V32Z"/></g></g></svg>