<svg id="Layer_1" data-name="Layer 1" xmlns="http://www.w3.org/2000/svg" viewBox="0 0 112.5771 115.4682"><defs><style>.cls-1{fill:none;stroke-width:3px;}.cls-1,.cls-3{stroke:#fff;stroke-miterlimit:10;}.cls-2,.cls-3{fill:#fff;}</style></defs><polyline class="cls-1" points="21.367 91.696 27.097 91.696 27.097 18.573 48.652 35.762 52.472 35.899 52.472 91.696 61.476 91.696"/><polyline class="cls-1" points="39.102 91.696 39.102 7.295 70.571 7.295 70.571 91.696 86.76 91.696"/><polyline class="cls-1" points="45.183 91.696 33.1 91.696 33.1 45.858 22.913 45.858 9.271 65.684 9.271 91.696 1.808 91.696"/><polygon class="cls-2" points="82.897 19.463 84.397 0 85.897 19.463 82.897 19.463"/><polyline class="cls-1" points="64.834 92.758 64.834 68.777 82.893 56.465 100.951 68.777 100.951 91.696 110.157 91.696"/><polyline class="cls-1" points="75.103 91.696 75.103 21.411 85.354 19.463 93.692 22.119 93.692 91.696 98.118 91.696"/><line class="cls-1" x1="67.3129" y1="13.7978" x2="60.0542" y2="13.7978"/><line class="cls-1" x1="67.3129" y1="19.4631" x2="60.0542" y2="19.4631"/><line class="cls-1" x1="67.3129" y1="25.1285" x2="60.0542" y2="25.1285"/><line class="cls-1" x1="67.3129" y1="30.7938" x2="60.0542" y2="30.7938"/><line class="cls-1" x1="67.3129" y1="36.4591" x2="60.0542" y2="36.4591"/><line class="cls-1" x1="67.3129" y1="42.1244" x2="60.0542" y2="42.1244"/><line class="cls-1" x1="67.3129" y1="47.7898" x2="60.0542" y2="47.7898"/><path class="cls-3" d="M8.1948,120.2549a4.0913,4.0913,0,0,1-.82-2.7412v-.84h2.08v1.0078q0,1.4283,1.14,1.4288a1.0469,1.0469,0,0,0,.85-.3467,1.747,1.747,0,0,0,.29-1.1241,3.235,3.235,0,0,0-.4-1.6269,7.6451,7.6451,0,0,0-1.48-1.69,9.1844,9.1844,0,0,1-1.9-2.2784,4.8377,4.8377,0,0,1-.54-2.3,3.9536,3.9536,0,0,1,.84-2.6982,3.0739,3.0739,0,0,1,2.44-.9561,2.9569,2.9569,0,0,1,2.39.9561,4.1242,4.1242,0,0,1,.81,2.74v.6084h-2.08v-.7558a1.7533,1.7533,0,0,0-.28-1.1026.9943.9943,0,0,0-.82-.3457q-1.1,0-1.1,1.4063a2.8772,2.8772,0,0,0,.41,1.4912,8.0745,8.0745,0,0,0,1.49,1.68,8.5608,8.5608,0,0,1,1.9,2.289,5.2927,5.2927,0,0,1,.52,2.4151,4.0668,4.0668,0,0,1-.85,2.7724,3.1167,3.1167,0,0,1-2.47.9659A3.0152,3.0152,0,0,1,8.1948,120.2549Z" transform="translate(-6.875 -6.2417)"/><path class="cls-3" d="M16.1948,106.3h3.36a3.1221,3.1221,0,0,1,2.46.9238,3.966,3.966,0,0,1,.82,2.709v7.4346a3.966,3.966,0,0,1-.82,2.709,3.1187,3.1187,0,0,1-2.46.9238h-3.36Zm3.32,12.6006a1.039,1.039,0,0,0,.83-.3359,1.6665,1.6665,0,0,0,.29-1.0928v-7.6436a1.6615,1.6615,0,0,0-.29-1.0918,1.039,1.039,0,0,0-.83-.3359h-1.12v10.5Z" transform="translate(-6.875 -6.2417)"/><path class="cls-3" d="M25.3145,106.3h3.26a3.2639,3.2639,0,0,1,2.48.83,3.6141,3.6141,0,0,1,.78,2.5508v.9033q0,2.29-1.44,2.8984v.042a1.7452,1.7452,0,0,1,1.13,1.0283,5.4112,5.4112,0,0,1,.33,2.0791v2.583q0,.63.04,1.0186a2.6508,2.6508,0,0,0,.2.7666h-2.24a3.4809,3.4809,0,0,1-.16-.6719,10.57,10.57,0,0,1-.04-1.1338v-2.6884a2.3732,2.3732,0,0,0-.31-1.4073,1.2793,1.2793,0,0,0-1.07-.3984h-.76V121h-2.2Zm3,6.3a1.2835,1.2835,0,0,0,.99-.3564,1.7469,1.7469,0,0,0,.33-1.1973v-1.1338a1.9407,1.9407,0,0,0-.27-1.1553.9986.9986,0,0,0-.85-.3564h-1V112.6Z" transform="translate(-6.875 -6.2417)"/><path class="cls-3" d="M38.5742,106.3h3.24a3.1215,3.1215,0,0,1,2.46.9238,3.9659,3.9659,0,0,1,.82,2.709v1.4492a3.9623,3.9623,0,0,1-.82,2.709,3.1181,3.1181,0,0,1-2.46.9238h-1.04V121h-2.2Zm3.24,6.6152a1.009,1.009,0,0,0,.81-.3154,1.6545,1.6545,0,0,0,.27-1.07v-1.7432a1.6577,1.6577,0,0,0-.27-1.0713,1.0089,1.0089,0,0,0-.81-.3144h-1.04v4.5146Z" transform="translate(-6.875 -6.2417)"/><path class="cls-3" d="M47.2939,106.3h3.26a3.2639,3.2639,0,0,1,2.48.83,3.6141,3.6141,0,0,1,.78,2.5508v.9033q0,2.29-1.44,2.8984v.042a1.7452,1.7452,0,0,1,1.13,1.0283,5.4112,5.4112,0,0,1,.33,2.0791v2.583q0,.63.04,1.0186a2.6508,2.6508,0,0,0,.2.7666h-2.24a3.4809,3.4809,0,0,1-.16-.6719,10.57,10.57,0,0,1-.04-1.1338v-2.6884a2.3732,2.3732,0,0,0-.31-1.4073,1.2793,1.2793,0,0,0-1.07-.3984h-.76V121h-2.2Zm3,6.3a1.2836,1.2836,0,0,0,.99-.3564,1.7469,1.7469,0,0,0,.33-1.1973v-1.1338a1.9407,1.9407,0,0,0-.27-1.1553.9986.9986,0,0,0-.85-.3564h-1V112.6Z" transform="translate(-6.875 -6.2417)"/><path class="cls-3" d="M57.0542,120.2441a3.9686,3.9686,0,0,1-.86-2.73v-7.7276a3.9721,3.9721,0,0,1,.86-2.73,3.6667,3.6667,0,0,1,4.96,0,3.9722,3.9722,0,0,1,.86,2.73v7.7276a3.9687,3.9687,0,0,1-.86,2.73,3.6667,3.6667,0,0,1-4.96,0Zm3.62-2.583v-8.0224q0-1.4487-1.14-1.4483t-1.14,1.4483v8.0224q0,1.4488,1.14,1.4493T60.6743,117.6611Z" transform="translate(-6.875 -6.2417)"/><path class="cls-3" d="M65.3545,106.3h3.2393a3.1208,3.1208,0,0,1,2.46.9238,3.9635,3.9635,0,0,1,.82,2.709v1.4492a3.96,3.96,0,0,1-.82,2.709,3.1174,3.1174,0,0,1-2.46.9238h-1.04V121H65.3545Zm3.2393,6.6152a1.0087,1.0087,0,0,0,.8105-.3154,1.6548,1.6548,0,0,0,.2695-1.07v-1.7432a1.658,1.658,0,0,0-.2695-1.0713,1.0086,1.0086,0,0,0-.8105-.3144h-1.04v4.5146Z" transform="translate(-6.875 -6.2417)"/><path class="cls-3" d="M74.0732,106.3h6V108.4H76.2725v3.8848H79.293v2.1H76.2725V118.9h3.8007V121h-6Z" transform="translate(-6.875 -6.2417)"/><path class="cls-3" d="M82.333,106.3h3.26a3.2621,3.2621,0,0,1,2.48.83,3.6118,3.6118,0,0,1,.78,2.5508v.9033q0,2.29-1.4394,2.8984v.042a1.7474,1.7474,0,0,1,1.13,1.0283,5.421,5.421,0,0,1,.33,2.0791v2.583a10.1365,10.1365,0,0,0,.04,1.0186,2.6486,2.6486,0,0,0,.1992.7666H86.873a3.4909,3.4909,0,0,1-.16-.6719,10.4088,10.4088,0,0,1-.04-1.1338v-2.6884a2.37,2.37,0,0,0-.3106-1.4073A1.2772,1.2772,0,0,0,85.293,114.7h-.7608V121H82.333Zm3,6.3a1.2814,1.2814,0,0,0,.9893-.3564,1.7417,1.7417,0,0,0,.33-1.1973v-1.1338a1.9412,1.9412,0,0,0-.2695-1.1553.9992.9992,0,0,0-.8506-.3564h-1V112.6Z" transform="translate(-6.875 -6.2417)"/><path class="cls-3" d="M93.0723,108.4h-2.3V106.3h6.8V108.4h-2.3V121h-2.2Z" transform="translate(-6.875 -6.2417)"/><path class="cls-3" d="M99.6328,106.3h2.1992V121H99.6328Z" transform="translate(-6.875 -6.2417)"/><path class="cls-3" d="M104.4727,106.3h6V108.4h-3.8008v3.8848h3.0205v2.1h-3.0205V118.9h3.8008V121h-6Z" transform="translate(-6.875 -6.2417)"/><path class="cls-3" d="M113.2119,120.2549a4.0912,4.0912,0,0,1-.8193-2.7412v-.84h2.0791v1.0078q0,1.4283,1.1406,1.4288a1.0469,1.0469,0,0,0,.85-.3467,1.747,1.747,0,0,0,.29-1.1241,3.2348,3.2348,0,0,0-.3995-1.6269,7.6867,7.6867,0,0,0-1.48-1.69,9.1881,9.1881,0,0,1-1.9-2.2784,4.8431,4.8431,0,0,1-.5391-2.3,3.9511,3.9511,0,0,1,.84-2.6982,3.0721,3.0721,0,0,1,2.4394-.9561,2.9569,2.9569,0,0,1,2.3906.9561,4.1236,4.1236,0,0,1,.81,2.74v.6084h-2.08v-.7558a1.753,1.753,0,0,0-.28-1.1026.9929.9929,0,0,0-.8194-.3457q-1.1,0-1.1006,1.4063a2.8777,2.8777,0,0,0,.41,1.4912,8.0894,8.0894,0,0,0,1.49,1.68,8.5855,8.5855,0,0,1,1.9,2.289,5.3056,5.3056,0,0,1,.52,2.4151,4.0693,4.0693,0,0,1-.85,2.7724,3.1186,3.1186,0,0,1-2.4707.9659A3.0148,3.0148,0,0,1,113.2119,120.2549Z" transform="translate(-6.875 -6.2417)"/></svg>